<svg xmlns="http://www.w3.org/2000/svg" viewBox="0 0 498.9 130.39"><defs><style>.cls-1{fill:none;}.cls-2{fill:#fff;}.cls-3{fill:#f1412c;}</style></defs><g id="Layer_1" data-name="Layer 1"><path class="cls-1" d="M248.15,95.27a4.74,4.74,0,0,0-3.4,1.29,5.34,5.34,0,0,0-1.53,3.2h9.87a5.34,5.34,0,0,0-1.55-3.22A4.8,4.8,0,0,0,248.15,95.27Z"/><path class="cls-1" d="M149.14,97.91a5.17,5.17,0,0,0-1.76-1.23,5.72,5.72,0,0,0-2.23-.44,5.14,5.14,0,0,0-2.8.86,5.7,5.7,0,0,0-2,2.27v4.88a7.38,7.38,0,0,0,2.15,3,4.7,4.7,0,0,0,3,1.19,4.38,4.38,0,0,0,2.08-.5,5.67,5.67,0,0,0,1.66-1.35,6,6,0,0,0,1.08-2,7.62,7.62,0,0,0,.38-2.39,6.54,6.54,0,0,0-.42-2.38A6.1,6.1,0,0,0,149.14,97.91Z"/><path class="cls-1" d="M176,95.27a4.74,4.74,0,0,0-3.4,1.29,5.4,5.4,0,0,0-1.53,3.2h9.87a5.28,5.28,0,0,0-1.55-3.22A4.8,4.8,0,0,0,176,95.27Z"/><path class="cls-1" d="M447.85,49.58a4.79,4.79,0,0,0-2,.44,4.65,4.65,0,0,0-1.62,1.23,5.82,5.82,0,0,0-1.09,1.93,7.27,7.27,0,0,0-.4,2.47,6.48,6.48,0,0,0,1.46,4.43,4.91,4.91,0,0,0,5.7,1.21,4.71,4.71,0,0,0,1.61-1.23,6,6,0,0,0,1.08-1.93,7.33,7.33,0,0,0,.4-2.48,6.47,6.47,0,0,0-1.46-4.42A4.63,4.63,0,0,0,447.85,49.58Z"/><path class="cls-1" d="M179.94,48.61a4.73,4.73,0,0,0-3.4,1.29A5.34,5.34,0,0,0,175,53.1h9.87a5.29,5.29,0,0,0-1.56-3.22A4.79,4.79,0,0,0,179.94,48.61Z"/><path class="cls-1" d="M478.26,48.61a4.74,4.74,0,0,0-3.4,1.29,5.34,5.34,0,0,0-1.53,3.2h9.87a5.34,5.34,0,0,0-1.55-3.22A4.82,4.82,0,0,0,478.26,48.61Z"/><path class="cls-1" d="M390,56.69h-3.91v5.13H390a2.75,2.75,0,0,0,1.95-.65,2.39,2.39,0,0,0,.7-1.87,2.47,2.47,0,0,0-.73-1.92A2.68,2.68,0,0,0,390,56.69Z"/><path class="cls-1" d="M211.55,61.73a4.38,4.38,0,0,0,2.08-.5,5.67,5.67,0,0,0,1.66-1.35,6,6,0,0,0,1.08-2,7.62,7.62,0,0,0,.38-2.39,6.54,6.54,0,0,0-.42-2.38,6.1,6.1,0,0,0-1.15-1.89A5,5,0,0,0,213.42,50a5.72,5.72,0,0,0-2.23-.44,5.14,5.14,0,0,0-2.8.86,5.64,5.64,0,0,0-2,2.27v4.88a7.38,7.38,0,0,0,2.15,2.95A4.7,4.7,0,0,0,211.55,61.73Z"/><path class="cls-1" d="M333.79,57.49A13,13,0,0,0,331.9,57a12,12,0,0,0-2.06-.2,5.5,5.5,0,0,0-3.2.88,2.54,2.54,0,0,0-1.21,2.19,2.44,2.44,0,0,0,.93,2,3.62,3.62,0,0,0,2.42.8,6.34,6.34,0,0,0,2.24-.4,5.15,5.15,0,0,0,1.79-1.06,2.06,2.06,0,0,0,1-1.57Z"/><path class="cls-1" d="M339.53,95.27a4.74,4.74,0,0,0-3.4,1.29,5.34,5.34,0,0,0-1.53,3.2h9.87a5.34,5.34,0,0,0-1.55-3.22A4.82,4.82,0,0,0,339.53,95.27Z"/><path class="cls-1" d="M274,51.23a4.63,4.63,0,0,0-3.64-1.65,4.79,4.79,0,0,0-3.67,1.67,6,6,0,0,0-1.08,1.93,7.27,7.27,0,0,0-.4,2.47,6.48,6.48,0,0,0,1.46,4.43,4.91,4.91,0,0,0,5.7,1.21A4.91,4.91,0,0,0,274,60.06a6,6,0,0,0,1.08-1.93,7.33,7.33,0,0,0,.4-2.48A6.47,6.47,0,0,0,274,51.23Z"/><polygon class="cls-2" points="133.35 67.5 140.46 67.5 140.46 41.37 153.33 41.37 153.33 67.5 160.4 67.5 160.4 35.23 133.35 35.23 133.35 67.5"/><path class="cls-2" d="M189.41,47a12,12,0,0,0-4-2.69,15.11,15.11,0,0,0-10.81,0,11.51,11.51,0,0,0-4,2.71,11.89,11.89,0,0,0-2.49,4,13.84,13.84,0,0,0-.86,4.88,12.55,12.55,0,0,0,.86,4.59,11.34,11.34,0,0,0,2.51,3.86,11.77,11.77,0,0,0,4,2.64A14.08,14.08,0,0,0,180,68a13.62,13.62,0,0,0,7.08-1.77,11.11,11.11,0,0,0,4.19-4.29l-5.77-1.61a4.33,4.33,0,0,1-2,2.05,6.91,6.91,0,0,1-3.23.81,6,6,0,0,1-3.78-1.32,5.2,5.2,0,0,1-1.87-3.9l0-.27h18a6.42,6.42,0,0,0,.1-.85c0-.41.05-.83.05-1.25a13.27,13.27,0,0,0-.84-4.66A11.62,11.62,0,0,0,189.41,47Zm-15,6.61,0-.28a5.92,5.92,0,0,1,1.71-3.78,5.2,5.2,0,0,1,3.75-1.43,5.26,5.26,0,0,1,3.73,1.41,5.84,5.84,0,0,1,1.74,3.8l0,.28Z"/><path class="cls-2" d="M205.86,62.82l.47.88a7.73,7.73,0,0,0,3,3.14A9.39,9.39,0,0,0,214.05,68a8.94,8.94,0,0,0,4.08-.95,9.81,9.81,0,0,0,3.25-2.58,12.5,12.5,0,0,0,2.12-3.92,15.43,15.43,0,0,0,.77-4.95,13.92,13.92,0,0,0-.83-4.83,12.58,12.58,0,0,0-2.31-3.89,10.81,10.81,0,0,0-3.47-2.59,10.22,10.22,0,0,0-4.4-1,9.15,9.15,0,0,0-4.65,1.13,9.48,9.48,0,0,0-3.26,3.14l-.46.72V43.77H199V77.33h6.88Zm0-10.28A6.21,6.21,0,0,1,208.12,50a5.66,5.66,0,0,1,3.07-.94,6.11,6.11,0,0,1,2.42.48,5.49,5.49,0,0,1,1.94,1.36,6.66,6.66,0,0,1,1.25,2,7.06,7.06,0,0,1,.45,2.56,8.23,8.23,0,0,1-.4,2.54,6.55,6.55,0,0,1-1.18,2.14,6.1,6.1,0,0,1-1.81,1.47,4.84,4.84,0,0,1-2.31.56,5.17,5.17,0,0,1-3.36-1.31,7.78,7.78,0,0,1-2.31-3.19l0-.09Z"/><path class="cls-2" d="M242.11,68a13.2,13.2,0,0,0,7-1.77,10.67,10.67,0,0,0,4-4.25l-6.72-2.06a4.58,4.58,0,0,1-1.71,1.64,5.27,5.27,0,0,1-4.86.22A5.58,5.58,0,0,1,238,60.39a6.39,6.39,0,0,1-1.2-2.09,8.2,8.2,0,0,1-.43-2.69A6.82,6.82,0,0,1,238,50.87a5.26,5.26,0,0,1,4-1.79,4.87,4.87,0,0,1,4.31,2.27l6.73-2A11.24,11.24,0,0,0,249,45a13,13,0,0,0-6.93-1.74,14,14,0,0,0-5.42,1,11.84,11.84,0,0,0-4,2.69,11.59,11.59,0,0,0-2.49,3.93,13.19,13.19,0,0,0,0,9.37,11.63,11.63,0,0,0,2.51,3.94,12.53,12.53,0,0,0,4,2.71A13.64,13.64,0,0,0,242.11,68Z"/><path class="cls-2" d="M275.82,67a11.79,11.79,0,0,0,4-2.69,11.37,11.37,0,0,0,2.46-3.93,13.29,13.29,0,0,0,.84-4.69,13,13,0,0,0-.86-4.68A11.59,11.59,0,0,0,279.77,47a12.17,12.17,0,0,0-4-2.72,13.63,13.63,0,0,0-5.39-1,13.82,13.82,0,0,0-5.42,1A12.05,12.05,0,0,0,261,47,11.27,11.27,0,0,0,258.52,51a13.51,13.51,0,0,0,0,9.38A11.22,11.22,0,0,0,261,64.27,11.7,11.7,0,0,0,265,67a15.19,15.19,0,0,0,10.84,0Zm-9.48-6.55a6.91,6.91,0,0,1-1.59-4.76,7.82,7.82,0,0,1,.43-2.64,6.43,6.43,0,0,1,1.18-2.09,5.35,5.35,0,0,1,8.06,0A7,7,0,0,1,276,55.65a7.84,7.84,0,0,1-.43,2.65,6.52,6.52,0,0,1-1.17,2.09,5.39,5.39,0,0,1-1.77,1.35,5.4,5.4,0,0,1-6.29-1.33Z"/><polygon class="cls-2" points="305.17 67.5 312.01 67.5 312.01 43.77 305.17 43.77 305.17 52.4 296.5 52.4 296.5 43.77 289.66 43.77 289.66 67.5 296.5 67.5 296.5 58.27 305.17 58.27 305.17 67.5"/><path class="cls-2" d="M335,63.76l.37-.48.21,1.71a3.38,3.38,0,0,0,1.24,2.12c.88.66,2.33.87,4.4.69a12.91,12.91,0,0,0,1.52-.25V61.73a1.84,1.84,0,0,1-1.17-.59,2.84,2.84,0,0,1-.39-1.7V53.21c0-3.23-1-5.72-2.92-7.38s-4.74-2.53-8.33-2.53a18.5,18.5,0,0,0-5.42.78,18.92,18.92,0,0,0-4.73,2.2l2,4.16a17.71,17.71,0,0,1,3.59-1.87,11,11,0,0,1,3.87-.69c3.39,0,5.1,1.5,5.1,4.45v1.5l-.36-.17a10,10,0,0,0-2.43-.74,17.22,17.22,0,0,0-2.91-.25,13.67,13.67,0,0,0-4.12.59,10.58,10.58,0,0,0-3.2,1.62,7.4,7.4,0,0,0-2.08,2.46,6.9,6.9,0,0,0-.73,3.16,7.07,7.07,0,0,0,.62,3,7.51,7.51,0,0,0,1.7,2.37,7.59,7.59,0,0,0,2.57,1.57,9.34,9.34,0,0,0,3.26.56,10.32,10.32,0,0,0,4.62-1.09A10.78,10.78,0,0,0,335,63.76Zm-6.22-.61a4.18,4.18,0,0,1-2.75-.91,3,3,0,0,1-1.1-2.39,3.07,3.07,0,0,1,1.42-2.6c1.35-1,3.24-1.2,5.64-.76a12.4,12.4,0,0,1,2.14.59l.16.06v2.48a2.52,2.52,0,0,1-1.16,2,5.59,5.59,0,0,1-1.93,1.15A7.18,7.18,0,0,1,328.78,63.15Z"/><path class="cls-2" d="M352.29,51.43c-.25,2.08-.49,3.79-.72,5.08a12,12,0,0,1-.9,3.06,3.25,3.25,0,0,1-1.45,1.59,5.21,5.21,0,0,1-1.91.45l.17,6.06a13.85,13.85,0,0,0,4.54-.76,7,7,0,0,0,3.17-2.41,13.78,13.78,0,0,0,2.08-4.6,58.12,58.12,0,0,0,1.4-7.37l.4-2.94h4.76V67.5h6.88V43.77H353.09Z"/><path class="cls-2" d="M397.52,53.22a9.06,9.06,0,0,0-3-1.6,12.93,12.93,0,0,0-3.92-.56h-5.05V43.77h-6.84V67.5H391a11.47,11.47,0,0,0,3.77-.59,8.21,8.21,0,0,0,2.87-1.66,7.25,7.25,0,0,0,1.83-2.61,9.11,9.11,0,0,0,.65-3.53,8.32,8.32,0,0,0-.67-3.38A6.78,6.78,0,0,0,397.52,53.22Zm-5.25,8.32a3.28,3.28,0,0,1-2.29.78h-4.41V56.19H390a3.21,3.21,0,0,1,2.27.83,3,3,0,0,1,.88,2.28A2.9,2.9,0,0,1,392.27,61.54Z"/><polygon class="cls-2" points="421.75 52.4 413.08 52.4 413.08 43.77 406.24 43.77 406.24 67.5 413.08 67.5 413.08 58.27 421.75 58.27 421.75 67.5 428.59 67.5 428.59 43.77 421.75 43.77 421.75 52.4"/><path class="cls-2" d="M457.22,47a12.17,12.17,0,0,0-4-2.72,13.6,13.6,0,0,0-5.39-1,13.82,13.82,0,0,0-5.42,1,12.16,12.16,0,0,0-4,2.72A11.27,11.27,0,0,0,436,51a13.51,13.51,0,0,0,0,9.38,11.22,11.22,0,0,0,2.46,3.93,11.79,11.79,0,0,0,4,2.69,15.19,15.19,0,0,0,10.84,0,11.79,11.79,0,0,0,4-2.69,11.37,11.37,0,0,0,2.46-3.93,13.25,13.25,0,0,0,.84-4.69,13,13,0,0,0-.86-4.68A11.59,11.59,0,0,0,457.22,47ZM453,58.3a6.52,6.52,0,0,1-1.17,2.09,5.53,5.53,0,0,1-1.77,1.35,5.4,5.4,0,0,1-6.29-1.33,6.91,6.91,0,0,1-1.59-4.76,7.82,7.82,0,0,1,.43-2.64,6.43,6.43,0,0,1,1.18-2.09,5.35,5.35,0,0,1,8.06,0,7,7,0,0,1,1.58,4.75A7.84,7.84,0,0,1,453,58.3Z"/><path class="cls-2" d="M490.19,50.9A11.32,11.32,0,0,0,487.73,47a12,12,0,0,0-4-2.69,13.81,13.81,0,0,0-5.39-1,14,14,0,0,0-5.42,1,11.6,11.6,0,0,0-4,2.71,11.89,11.89,0,0,0-2.49,4,13.84,13.84,0,0,0-.86,4.88,12.55,12.55,0,0,0,.86,4.59A11.34,11.34,0,0,0,469,64.34,11.77,11.77,0,0,0,473,67a14.09,14.09,0,0,0,5.38,1,13.56,13.56,0,0,0,7.07-1.77,11.11,11.11,0,0,0,4.19-4.29l-5.76-1.61a4.4,4.4,0,0,1-2,2.05,6.91,6.91,0,0,1-3.23.81,6,6,0,0,1-3.78-1.32,5.24,5.24,0,0,1-1.87-3.9l0-.27h18a8.25,8.25,0,0,0,.09-.85c0-.42,0-.84,0-1.25A13,13,0,0,0,490.19,50.9Zm-17.42,2.7,0-.28a5.92,5.92,0,0,1,1.71-3.78,5.64,5.64,0,0,1,7.48,0,5.84,5.84,0,0,1,1.74,3.8l0,.28Z"/><path class="cls-2" d="M155.09,93.5a10.92,10.92,0,0,0-3.47-2.59,10.22,10.22,0,0,0-4.4-.94,9.15,9.15,0,0,0-4.65,1.12,9.42,9.42,0,0,0-3.26,3.15l-.46.71V90.43h-5.92V124h6.89V109.48l.47.89a7.7,7.7,0,0,0,3,3.13,9.42,9.42,0,0,0,4.68,1.12,9.17,9.17,0,0,0,4.09-.94,10,10,0,0,0,3.24-2.59,12.6,12.6,0,0,0,2.12-3.92,15.38,15.38,0,0,0,.77-5,14,14,0,0,0-.83-4.83A12.58,12.58,0,0,0,155.09,93.5Zm-4.28,11.22a6.52,6.52,0,0,1-1.18,2.14,6.1,6.1,0,0,1-1.81,1.47,4.84,4.84,0,0,1-2.31.56,5.17,5.17,0,0,1-3.36-1.31,7.78,7.78,0,0,1-2.31-3.19l0-.09,0-5.09a6.16,6.16,0,0,1,2.24-2.53,5.69,5.69,0,0,1,3.07-.94,6.15,6.15,0,0,1,2.42.48,5.62,5.62,0,0,1,1.94,1.36,6.66,6.66,0,0,1,1.25,2,7.1,7.1,0,0,1,.45,2.56A8.23,8.23,0,0,1,150.81,104.72Z"/><path class="cls-2" d="M185.44,93.65a11.81,11.81,0,0,0-4-2.69,13.82,13.82,0,0,0-5.39-1,14,14,0,0,0-5.42,1,11.6,11.6,0,0,0-4,2.71,11.89,11.89,0,0,0-2.49,4,13.84,13.84,0,0,0-.86,4.88,12.55,12.55,0,0,0,.86,4.59,11.34,11.34,0,0,0,2.51,3.86,11.94,11.94,0,0,0,4,2.65,14.29,14.29,0,0,0,5.38,1,13.56,13.56,0,0,0,7.07-1.77,11.16,11.16,0,0,0,4.19-4.28L181.57,107a4.35,4.35,0,0,1-2,2,6.91,6.91,0,0,1-3.23.81,5.9,5.9,0,0,1-3.78-1.32,5.24,5.24,0,0,1-1.87-3.9l0-.26h18c0-.26.07-.54.09-.86s.05-.83.05-1.25a13,13,0,0,0-.84-4.66A11.32,11.32,0,0,0,185.44,93.65Zm-15,6.61,0-.28a6,6,0,0,1,1.71-3.78A5.22,5.22,0,0,1,176,94.77a5.29,5.29,0,0,1,3.73,1.41,5.84,5.84,0,0,1,1.74,3.8l0,.28Z"/><polygon class="cls-2" points="222.05 108.24 215.41 108.24 215.41 90.43 208.53 90.43 208.53 108.24 201.84 108.24 201.84 90.43 195.01 90.43 195.01 114.16 228.94 114.16 228.94 90.43 222.05 90.43 222.05 108.24"/><path class="cls-2" d="M257.62,93.65a12,12,0,0,0-4-2.69,13.82,13.82,0,0,0-5.39-1,14,14,0,0,0-5.42,1,11.6,11.6,0,0,0-4,2.71,11.89,11.89,0,0,0-2.49,4,13.84,13.84,0,0,0-.86,4.88,12.51,12.51,0,0,0,.86,4.59,11.34,11.34,0,0,0,2.51,3.86,11.94,11.94,0,0,0,4,2.65,14.29,14.29,0,0,0,5.38,1,13.56,13.56,0,0,0,7.07-1.77,11.16,11.16,0,0,0,4.19-4.28L253.75,107a4.4,4.4,0,0,1-2,2,6.91,6.91,0,0,1-3.23.81,5.9,5.9,0,0,1-3.78-1.32,5.27,5.27,0,0,1-1.87-3.9l0-.26h18c0-.25.07-.54.09-.86s.05-.84.05-1.25a13,13,0,0,0-.84-4.66A11.47,11.47,0,0,0,257.62,93.65Zm-15,6.61,0-.28a6,6,0,0,1,1.71-3.78,5.22,5.22,0,0,1,3.75-1.43,5.29,5.29,0,0,1,3.73,1.41,5.84,5.84,0,0,1,1.74,3.8l0,.28Z"/><polygon class="cls-2" points="282.69 99.06 274.03 99.06 274.03 90.43 267.19 90.43 267.19 114.16 274.03 114.16 274.03 104.93 282.69 104.93 282.69 114.16 289.53 114.16 289.53 90.43 282.69 90.43 282.69 99.06"/><polygon class="cls-2" points="304.44 104.57 304.44 90.43 297.6 90.43 297.6 114.16 302.63 114.16 313.43 100.44 313.43 114.16 320.32 114.16 320.32 90.43 315.38 90.43 304.44 104.57"/><path class="cls-2" d="M349,93.65A12,12,0,0,0,345,91a13.82,13.82,0,0,0-5.39-1,14,14,0,0,0-5.42,1,11.6,11.6,0,0,0-4,2.71,11.89,11.89,0,0,0-2.49,4,13.84,13.84,0,0,0-.86,4.88,12.51,12.51,0,0,0,.86,4.59,11.34,11.34,0,0,0,2.51,3.86,11.94,11.94,0,0,0,4,2.65,14.29,14.29,0,0,0,5.38,1,13.56,13.56,0,0,0,7.07-1.77,11.16,11.16,0,0,0,4.19-4.28L345.13,107a4.4,4.4,0,0,1-2,2,6.91,6.91,0,0,1-3.23.81,5.9,5.9,0,0,1-3.78-1.32,5.24,5.24,0,0,1-1.87-3.9l0-.26h18a6.58,6.58,0,0,0,.1-.86c0-.42.05-.84.05-1.25a13,13,0,0,0-.84-4.66A11.47,11.47,0,0,0,349,93.65Zm-15,6.61,0-.28a6,6,0,0,1,1.71-3.78,5.22,5.22,0,0,1,3.75-1.43,5.29,5.29,0,0,1,3.73,1.41A5.84,5.84,0,0,1,345,100l0,.28Z"/><circle class="cls-3" cx="52.5" cy="20.57" r="14.41" transform="translate(20.42 66.94) rotate(-76.72)"/><path class="cls-3" d="M92.94,39.17h0a14.29,14.29,0,0,0-20.22,0L52.5,59.39,72.72,79.61,92.94,59.39A14.3,14.3,0,0,0,92.94,39.17Z"/><path class="cls-3" d="M12.06,39.17h0a14.29,14.29,0,0,0,0,20.22L32.28,79.61,52.5,59.39,32.28,39.17A14.29,14.29,0,0,0,12.06,39.17Z"/><path class="cls-2" d="M72.72,79.61,52.5,59.39,32.28,79.61,12.06,99.83a14.29,14.29,0,0,0,0,20.22h0a14.3,14.3,0,0,0,20.22,0L52.5,99.83l20.22,20.22a14.3,14.3,0,0,0,20.22,0h0a14.3,14.3,0,0,0,0-20.22Z"/></g></svg>