<svg width="51" height="50" viewBox="0 0 51 50" fill="none" xmlns="http://www.w3.org/2000/svg">
<path fill-rule="evenodd" clip-rule="evenodd" d="M0.635376 25C0.635376 38.8071 11.8283 50 25.6354 50C39.4425 50 50.6354 38.8071 50.6354 25C50.6354 11.1929 39.4425 0 25.6354 0C11.8283 0 0.635376 11.1929 0.635376 25ZM21.052 36.4583L21.4774 30.0857L21.477 30.0854L33.0697 19.624C33.5784 19.1724 32.9586 18.9522 32.2832 19.3618L17.9763 28.3878L11.7965 26.459C10.4619 26.0504 10.4524 25.1333 12.0961 24.474L36.1774 15.1884C37.2772 14.6891 38.3388 15.4526 37.9189 17.1359L33.8179 36.4616C33.5315 37.8349 32.7017 38.1633 31.552 37.529L25.3049 32.9135L22.302 35.8333C22.2926 35.8425 22.2832 35.8517 22.2738 35.8608C21.9379 36.1878 21.6601 36.4583 21.052 36.4583Z" fill="white"/>
</svg>
