<svg width="52" height="50" viewBox="0 0 52 50" fill="none" xmlns="http://www.w3.org/2000/svg">
<path fill-rule="evenodd" clip-rule="evenodd" d="M0.635376 25C0.635376 38.8071 12.0521 50 26.1354 50C40.2186 50 51.6354 38.8071 51.6354 25C51.6354 11.1929 40.2186 0 26.1354 0C12.0521 0 0.635376 11.1929 0.635376 25ZM42.1389 24.0432C42.1355 32.2378 35.3361 38.9055 26.9759 38.9089H26.9696C24.4319 38.908 21.9383 38.2838 19.7236 37.0994L11.6854 39.1667L13.8365 31.4634C12.5096 29.2089 11.8114 26.6515 11.8125 24.0315C11.8158 15.8351 18.618 9.16667 26.9757 9.16667C31.0321 9.16838 34.8392 10.7165 37.702 13.5265C40.5648 16.3363 42.1405 20.0712 42.1389 24.0432Z" fill="white"/>
<path fill-rule="evenodd" clip-rule="evenodd" d="M15.326 35.6349L20.096 34.4082L20.5562 34.6759C22.4912 35.8017 24.7093 36.3974 26.9708 36.3982H26.9759C33.9223 36.3982 39.5759 30.8553 39.5787 24.0423C39.58 20.7408 38.2704 17.6365 35.8909 15.301C33.5114 12.9655 30.3471 11.6786 26.9808 11.6775C20.0291 11.6775 14.3754 17.2199 14.3726 24.0323C14.3716 26.367 15.038 28.6407 16.2995 30.6079L16.5992 31.0754L15.326 35.6349ZM34.0961 27.2438C34.3603 27.369 34.5387 27.4535 34.6149 27.5782C34.7096 27.7331 34.7096 28.4768 34.3941 29.3446C34.0782 30.2122 32.5646 31.0041 31.8366 31.1107C31.1839 31.2064 30.3579 31.2463 29.4503 30.9635C28.9 30.7924 28.1944 30.5638 27.2904 30.1811C23.7385 28.6775 21.3382 25.3024 20.8846 24.6646C20.8528 24.6199 20.8305 24.5886 20.8181 24.5724L20.8151 24.5684C20.6146 24.3061 19.2711 22.5487 19.2711 20.7299C19.2711 19.0189 20.1284 18.1221 20.523 17.7093C20.55 17.6811 20.5749 17.655 20.5971 17.6312C20.9444 17.2593 21.3549 17.1664 21.6075 17.1664C21.86 17.1664 22.1129 17.1686 22.3336 17.1795C22.3609 17.1809 22.3892 17.1807 22.4185 17.1805C22.6393 17.1793 22.9145 17.1777 23.1861 17.8171C23.2905 18.0632 23.4434 18.4281 23.6046 18.8128C23.9306 19.591 24.2908 20.4507 24.3542 20.5752C24.4489 20.7611 24.5121 20.9779 24.3858 21.2259C24.3668 21.2631 24.3493 21.2982 24.3325 21.3318C24.2377 21.5216 24.1679 21.6613 24.0069 21.8455C23.9436 21.918 23.8782 21.9961 23.8128 22.0742C23.6824 22.2299 23.5521 22.3855 23.4386 22.4963C23.2489 22.6815 23.0515 22.8825 23.2725 23.2544C23.4935 23.6263 24.2539 24.8426 25.3802 25.8275C26.5909 26.8863 27.6432 27.3338 28.1766 27.5606C28.2808 27.6049 28.3651 27.6408 28.427 27.6712C28.8058 27.8572 29.0268 27.826 29.2478 27.5782C29.4688 27.3303 30.1949 26.4936 30.4475 26.1217C30.7 25.75 30.9527 25.8119 31.2999 25.9358C31.6473 26.0599 33.51 26.9584 33.8889 27.1443C33.9628 27.1806 34.032 27.2134 34.0961 27.2438Z" fill="white"/>
</svg>
